<svg width="506" height="528" viewBox="0 0 506 528" fill="none" xmlns="http://www.w3.org/2000/svg">
<path d="M505.875 465.325H0.125V465.672H505.875V465.325Z" fill="#E6E6E6"/>
<path d="M79.2447 480.813H52.3691V481.16H79.2447V480.813Z" fill="#E6E6E6"/>
<path d="M88.9649 473.875H65.8015V474.222H88.9649V473.875Z" fill="#E6E6E6"/>
<path d="M329.277 474.901H267.121V475.248H329.277V474.901Z" fill="#E6E6E6"/>
<path d="M350.013 474.901H335.104V475.248H350.013V474.901Z" fill="#E6E6E6"/>
<path d="M434.787 477.274H385.567V477.621H434.787V477.274Z" fill="#E6E6E6"/>
<path d="M195.516 482.812H107.89V483.159H195.516V482.812Z" fill="#E6E6E6"/>
<path d="M450.84 477.274H443.668V477.621H450.84V477.274Z" fill="#E6E6E6"/>
<path d="M239.85 403.427H44.5397C43.0097 403.423 41.5432 402.587 40.4622 401.101C39.3813 399.615 38.7742 397.601 38.7742 395.502V18.7957C38.7875 16.7084 39.4005 14.7126 40.48 13.2418C41.5595 11.771 43.0184 10.944 44.5397 10.9404H239.85C241.382 10.9404 242.851 11.7753 243.934 13.2615C245.017 14.7477 245.626 16.7633 245.626 18.8651V395.502C245.626 397.604 245.017 399.62 243.934 401.106C242.851 402.592 241.382 403.427 239.85 403.427ZM44.5397 11.218C43.0767 11.2217 41.6746 12.0217 40.6411 13.4424C39.6075 14.8631 39.027 16.7884 39.027 18.7957V395.502C39.027 397.509 39.6075 399.435 40.6411 400.855C41.6746 402.276 43.0767 403.076 44.5397 403.08H239.85C241.314 403.076 242.717 402.277 243.753 400.856C244.788 399.436 245.37 397.511 245.373 395.502V18.7957C245.37 16.7871 244.788 14.8618 243.753 13.4415C242.717 12.0212 241.314 11.2217 239.85 11.218H44.5397Z" fill="#E6E6E6"/>
<path d="M458.648 403.427H263.327C261.796 403.423 260.329 402.587 259.246 401.102C258.164 399.616 257.554 397.603 257.552 395.502V18.7957C257.568 16.7071 258.183 14.7113 259.264 13.2409C260.345 11.7705 261.805 10.944 263.327 10.9404H458.648C460.168 10.9477 461.624 11.7763 462.701 13.2467C463.779 14.7171 464.39 16.7108 464.404 18.7957V395.502C464.404 397.599 463.798 399.611 462.719 401.096C461.64 402.581 460.176 403.419 458.648 403.427ZM263.327 11.218C261.864 11.2217 260.46 12.0212 259.425 13.4415C258.39 14.8618 257.807 16.7871 257.805 18.7957V395.502C257.807 397.511 258.39 399.436 259.425 400.856C260.46 402.277 261.864 403.076 263.327 403.08H458.648C460.112 403.076 461.515 402.277 462.55 400.856C463.585 399.436 464.168 397.511 464.171 395.502V18.7957C464.168 16.7871 463.585 14.8618 462.55 13.4415C461.515 12.0212 460.112 11.2217 458.648 11.218H263.327Z" fill="#E6E6E6"/>
<path d="M155.318 226.645C158.134 209.884 150.514 193.165 138.298 189.302C126.083 185.438 113.898 195.894 111.082 212.654C108.266 229.415 115.886 246.134 128.102 249.997C140.317 253.86 152.503 243.405 155.318 226.645Z" fill="#F0F0F0"/>
<path d="M287.978 213.207C285.156 204.88 287.401 198.843 294.32 198.843C298.649 198.843 304.03 201.202 309.27 205.019C309.867 202.84 311.525 201.535 314.206 201.535C318.93 201.535 325.433 205.574 330.531 211.25C332.105 209.806 333.959 209.047 335.852 209.071C340.373 208.821 345.835 211.139 350.59 214.914C350.868 214.551 351.197 214.269 351.557 214.083C351.916 213.897 352.299 213.812 352.683 213.832C354.19 213.901 355.67 214.402 357.027 215.304C358.384 216.205 359.588 217.486 360.563 219.064C360.674 219.244 360.765 219.439 360.866 219.619H284.468C282.05 216.663 284.721 213.36 287.978 213.207Z" fill="#F5F5F5"/>
<path d="M139.145 277.645L201.737 257.979V465.326H139.145V277.645Z" fill="#FAFAFA"/>
<path d="M234.217 257.979H201.737V465.326H234.217V257.979Z" fill="#EBEBEB"/>
<path d="M223.606 465.325H276.881V208.391H223.606L223.606 465.325Z" fill="#FAFAFA"/>
<path d="M304.526 208.391H276.881V465.325H304.526V208.391Z" fill="#EBEBEB"/>
<path d="M230.777 208.391H276.881V189.294H230.777V208.391Z" fill="#FAFAFA"/>
<path d="M230.777 208.391H276.881V204.102H230.777V208.391Z" fill="#EBEBEB"/>
<path d="M297.364 189.294H276.881V208.391H297.364V189.294Z" fill="#EBEBEB"/>
<path d="M237.939 189.294H276.872V170.197H237.939V189.294Z" fill="#FAFAFA"/>
<path d="M237.939 189.294H276.872V185.005H237.939V189.294Z" fill="#EBEBEB"/>
<path d="M290.193 170.211H276.881V189.308H290.193V170.211Z" fill="#EBEBEB"/>
<path d="M265.361 143.536H262.771V170.211H265.361V143.536Z" fill="#EBEBEB"/>
<path d="M295.695 465.325H334.598V241.783H295.695V465.325Z" fill="#FAFAFA"/>
<path d="M354.797 241.783H334.608V465.326H354.797V241.783Z" fill="#EBEBEB"/>
<path d="M344.703 287.124L374.198 321.82V465.325H344.703V287.124Z" fill="#FAFAFA"/>
<path d="M389.512 321.821H374.198V465.326H389.512V321.821Z" fill="#EBEBEB"/>
<path d="M389.512 321.82H374.198L344.703 287.124H360.007L389.512 321.82Z" fill="#EBEBEB"/>
<path d="M445.083 465.325C445.517 461.991 446.55 458.858 448.088 456.209C449.627 453.56 451.622 451.48 453.894 450.155C451.899 454.718 450.994 460.021 451.304 465.325H445.083Z" fill="#EBEBEB"/>
<path d="M188.567 465.325C188.134 461.991 187.101 458.858 185.563 456.209C184.024 453.56 182.029 451.48 179.757 450.155C181.752 454.718 182.657 460.021 182.347 465.325H188.567Z" fill="#EBEBEB"/>
<path d="M59.6721 465.325C59.6721 465.325 59.1764 447.56 53.7649 442.397C55.9801 449.656 55.5047 465.325 55.5047 465.325H59.6721Z" fill="#EBEBEB"/>
<path d="M57.6389 465.325C57.6389 465.325 58.1447 455.124 63.5562 452.168C61.3309 456.332 61.8164 465.325 61.8164 465.325H57.6389Z" fill="#EBEBEB"/>
<path d="M193.2 465.325C193.2 465.325 192.654 448.504 182.842 442.397C187.232 451.03 186.979 465.325 186.979 465.325H193.2Z" fill="#EBEBEB"/>
<path d="M94.8821 352.089L102.023 421.204L102.731 428.116H107.313L106.595 421.204L99.4541 352.089H94.8821Z" fill="#E0E0E0"/>
<path d="M291.103 352.089L298.244 421.204L298.952 428.116H303.534L302.816 421.204L295.675 352.089H291.103Z" fill="#E0E0E0"/>
<path d="M124.206 421.205L124.924 428.117L128.778 465.381H133.36L129.506 428.117L128.798 421.205H124.206Z" fill="#E6E6E6"/>
<path d="M320.437 421.205L321.155 428.117L324.999 465.381H329.571L325.727 428.117L325.019 421.205H320.437Z" fill="#E6E6E6"/>
<path d="M297.314 421.205L296.596 428.117L292.742 465.381H288.16L292.013 428.117L292.722 421.205H297.314Z" fill="#E6E6E6"/>
<path d="M101.083 421.205L100.365 428.117L96.521 465.381H91.949L95.7927 428.117L96.5108 421.205H101.083Z" fill="#E6E6E6"/>
<path d="M88.2976 361.708H298.012L294.118 342.458H84.4033L88.2976 361.708Z" fill="#F5F5F5"/>
<path d="M93.082 361.708H302.806L298.912 342.458H89.1877L93.082 361.708Z" fill="#E6E6E6"/>
<path d="M91.2208 385.703H300.935L297.041 366.468H87.3164L91.2208 385.703Z" fill="#F5F5F5"/>
<path d="M96.0051 385.703H305.719L301.825 366.468H92.1108L96.0051 385.703Z" fill="#E6E6E6"/>
<path d="M94.134 409.742H303.858L299.964 390.506H90.2397L94.134 409.742Z" fill="#F5F5F5"/>
<path d="M98.9282 409.742H308.643L304.748 390.506H95.0339L98.9282 409.742Z" fill="#E6E6E6"/>
<path d="M327.73 421.205H118.936V428.117H327.73V421.205Z" fill="#E6E6E6"/>
<path d="M118.936 421.205H90.2397V428.117H118.936V421.205Z" fill="#F5F5F5"/>
<path d="M74.4706 139.275C70.5561 127.673 73.6715 119.415 83.2403 119.415C89.2385 119.415 96.673 122.663 103.925 127.95C104.745 124.939 107.051 123.134 110.753 123.134C117.287 123.134 126.28 128.686 133.34 136.611C135.513 134.61 138.077 133.56 140.694 133.599C146.945 133.238 154.511 136.458 161.085 141.676C161.867 140.671 162.907 140.132 163.978 140.177C167.579 139.969 172.455 143.217 174.872 147.408C175.024 147.672 175.155 147.922 175.287 148.185H69.6154C66.2775 144.063 69.9694 139.483 74.4706 139.275Z" fill="#F5F5F5"/>
<path d="M352.036 163.202C352.302 163.181 352.569 163.181 352.835 163.202C352.593 159.413 354.019 156.985 357.084 156.985C359.807 157.237 362.444 158.405 364.761 160.385C363.972 153.029 366.511 148.241 372.236 148.241C376.858 148.241 382.715 151.35 388.501 156.43C389.007 153.543 390.706 151.808 393.558 151.808C398.616 151.808 405.696 157.165 411.462 164.715C412.977 162.825 414.958 161.794 417.005 161.828C421.789 161.481 427.737 164.604 433.007 169.573C433.26 169.117 433.591 168.753 433.969 168.511C434.348 168.269 434.764 168.157 435.182 168.185C437.801 168.004 441.402 170.766 443.506 174.458H347.828C345.573 168.74 347.363 163.841 352.036 163.202Z" fill="#F5F5F5"/>
<path d="M191.076 79.2641C191.338 79.243 191.602 79.243 191.865 79.2641C191.622 75.4613 193.058 73.0464 196.113 73.0464C198.84 73.2969 201.48 74.4647 203.8 76.4467C203.011 69.0772 205.54 64.2891 211.265 64.2891C215.898 64.2891 221.744 67.4117 227.53 72.4913C228.036 69.6046 229.735 67.8697 232.588 67.8697C237.645 67.8697 244.726 73.213 250.491 80.7768C252.009 78.8927 253.987 77.8577 256.034 77.8762C260.819 77.5431 266.766 80.6519 272.036 85.6204C272.29 85.1656 272.621 84.8019 272.999 84.5602C273.378 84.3185 273.794 84.2061 274.211 84.2326C276.831 84.0383 280.442 86.8001 282.536 90.5057H186.858C184.612 84.8016 186.403 79.9025 191.076 79.2641Z" fill="#F5F5F5"/>
<path d="M429.78 441.315L411.805 416.652H397.806L413.343 437.97H409.074V465.325H425.511V441.315H429.78Z" fill="#EBEBEB"/>
<path d="M415.781 441.315L397.806 416.652L379.832 441.315H386.538V465.325H409.074V441.315H415.781Z" fill="#FAFAFA"/>
<path d="M253 528C361.314 528 449.12 520.966 449.12 512.29C449.12 503.613 361.314 496.579 253 496.579C144.686 496.579 56.8801 503.613 56.8801 512.29C56.8801 520.966 144.686 528 253 528Z" fill="#F5F5F5"/>
<path d="M423.833 84.1065L392.513 47.1201H368.114L395.192 79.0964H387.741V120.108H416.382V84.1065H423.833Z" fill="#407BFF"/>
<path opacity="0.4" d="M423.833 84.1065L392.513 47.1201H368.114L395.192 79.0964H387.741V120.108H416.382V84.1065H423.833Z" fill="white"/>
<path d="M399.434 84.1065L368.114 47.1201L336.793 84.1065H348.487V120.108H387.74V84.1065H399.434Z" fill="#407BFF"/>
<path opacity="0.7" d="M399.434 84.1065L368.114 47.1201L336.793 84.1065H348.487V120.108H387.74V84.1065H399.434Z" fill="white"/>
<path d="M444 231.747L412.68 194.747H388.281L415.359 226.723H407.908V267.735H436.549V231.747H444Z" fill="#407BFF"/>
<path opacity="0.4" d="M444 231.747L412.68 194.747H388.281L415.359 226.723H407.908V267.735H436.549V231.747H444Z" fill="white"/>
<path d="M419.603 231.747L388.282 194.747L356.961 231.747H368.644V267.735H407.909V231.747H419.603Z" fill="#407BFF"/>
<path opacity="0.7" d="M419.603 231.747L388.282 194.747L356.961 231.747H368.644V267.735H407.909V231.747H419.603Z" fill="white"/>
<path d="M303.04 270.204L271.708 233.218H247.321L274.399 265.18H266.948V306.205H295.589V270.204H303.04Z" fill="#407BFF"/>
<path opacity="0.4" d="M303.04 270.204L271.708 233.218H247.321L274.399 265.18H266.948V306.205H295.589V270.204H303.04Z" fill="white"/>
<path d="M278.641 270.204L247.321 233.218L216 270.204H227.682V306.191H266.947V270.204H278.641Z" fill="#407BFF"/>
<path opacity="0.7" d="M278.641 270.204L247.321 233.218L216 270.204H227.682V306.191H266.947V270.204H278.641Z" fill="white"/>
<path d="M301.171 145.921H284.318L281.909 143.09L262.341 100.066L301.171 145.921Z" fill="#2F54C6"/>
<path d="M284.259 187.711H319.764V136.86H284.259V187.711Z" fill="#407BFF"/>
<path opacity="0.3" d="M284.259 187.711H319.764V136.86H284.259V187.711Z" fill="black"/>
<path d="M298.762 143.09H329.013L290.171 97.2217H259.931L298.762 143.09Z" fill="#407BFF"/>
<path opacity="0.3" d="M298.762 143.09H329.013L290.171 97.2217H259.931L298.762 143.09Z" fill="black"/>
<path d="M284.259 130.225V187.71H235.592V130.225L259.931 102.315L260.178 102.607L262.341 105.077L284.259 130.225Z" fill="#407BFF"/>
<path opacity="0.3" d="M262.341 100.066V119.968L240.352 145.921H235.592V131.654L260.178 102.606L262.341 100.066Z" fill="black"/>
<path d="M298.762 143.09H281.908L259.931 117.124V97.2217L298.762 143.09Z" fill="#407BFF"/>
<path d="M221.089 143.09H237.942L259.931 117.124V97.2217L221.089 143.09Z" fill="#407BFF"/>
<path d="M186.635 201.556C176.053 211.16 165.136 220.195 154.157 229.077C143.178 237.959 132.05 246.592 120.885 255.155C109.72 263.718 98.369 271.962 86.9682 280.136C81.2988 284.3 75.5425 288.242 69.8235 292.294C67.0027 294.469 63.8858 296.119 60.5937 297.179C58.809 297.718 56.9802 298.053 55.1352 298.179C53.062 298.37 50.9751 298.244 48.9324 297.804C47.3331 297.44 45.8138 296.726 44.4614 295.704C43.109 294.682 41.9502 293.372 41.0513 291.848C40.1524 290.324 39.5311 288.617 39.223 286.824C38.915 285.031 38.9261 283.188 39.2559 281.399C39.2559 281.191 39.3428 280.928 39.3924 280.705C39.949 278.458 40.7842 276.309 41.8735 274.321C42.79 272.551 43.8667 270.891 45.0866 269.367C47.3846 266.524 50.0783 264.115 53.0635 262.233C58.8321 258.264 64.5511 254.225 70.3445 250.339C81.8942 242.442 93.5556 234.767 105.279 227.19C117.002 219.612 128.85 212.27 140.796 205.109C152.743 197.947 164.789 190.967 177.145 184.527C179.139 183.56 181.376 183.426 183.451 184.149C185.525 184.872 187.299 186.404 188.448 188.467C189.598 190.53 190.047 192.986 189.714 195.388C189.382 197.79 188.289 199.979 186.635 201.556Z" fill="#407BFF"/>
<path d="M186.635 201.556C176.053 211.16 165.136 220.195 154.157 229.077C143.178 237.959 132.05 246.592 120.885 255.155C109.72 263.718 98.369 271.962 86.9682 280.136C81.2988 284.3 75.5425 288.242 69.8235 292.294C67.0027 294.469 63.8858 296.119 60.5937 297.179C58.809 297.718 56.9802 298.053 55.1352 298.179C53.062 298.37 50.9751 298.244 48.9324 297.804C47.3331 297.44 45.8138 296.726 44.4614 295.704C43.109 294.682 41.9502 293.372 41.0513 291.848C40.1524 290.324 39.5311 288.617 39.223 286.824C38.915 285.031 38.9261 283.188 39.2559 281.399C39.2559 281.191 39.3428 280.928 39.3924 280.705C39.949 278.458 40.7842 276.309 41.8735 274.321C42.79 272.551 43.8667 270.891 45.0866 269.367C47.3846 266.524 50.0783 264.115 53.0635 262.233C58.8321 258.264 64.5511 254.225 70.3445 250.339C81.8942 242.442 93.5556 234.767 105.279 227.19C117.002 219.612 128.85 212.27 140.796 205.109C152.743 197.947 164.789 190.967 177.145 184.527C179.139 183.56 181.376 183.426 183.451 184.149C185.525 184.872 187.299 186.404 188.448 188.467C189.598 190.53 190.047 192.986 189.714 195.388C189.382 197.79 188.289 199.979 186.635 201.556Z" fill="#407BFF"/>
<path opacity="0.5" d="M186.635 201.556C176.053 211.16 165.136 220.195 154.157 229.077C143.178 237.959 132.05 246.592 120.885 255.155C109.72 263.718 98.369 271.962 86.9682 280.136C81.2988 284.3 75.5425 288.242 69.8235 292.294C67.0027 294.469 63.8858 296.119 60.5937 297.179C58.809 297.718 56.9802 298.053 55.1352 298.179C53.062 298.37 50.9751 298.244 48.9324 297.804C47.3331 297.44 45.8138 296.726 44.4614 295.704C43.109 294.682 41.9502 293.372 41.0513 291.848C40.1524 290.324 39.5311 288.617 39.223 286.824C38.915 285.031 38.9261 283.188 39.2559 281.399C39.2559 281.191 39.3428 280.928 39.3924 280.705C39.949 278.458 40.7842 276.309 41.8735 274.321C42.79 272.551 43.8667 270.891 45.0866 269.367C47.3846 266.524 50.0783 264.115 53.0635 262.233C58.8321 258.264 64.5511 254.225 70.3445 250.339C81.8942 242.442 93.5556 234.767 105.279 227.19C117.002 219.612 128.85 212.27 140.796 205.109C152.743 197.947 164.789 190.967 177.145 184.527C179.139 183.56 181.376 183.426 183.451 184.149C185.525 184.872 187.299 186.404 188.448 188.467C189.598 190.53 190.047 192.986 189.714 195.388C189.382 197.79 188.289 199.979 186.635 201.556Z" fill="white"/>
<path d="M140.859 500.293L150.982 497.67L146.243 471.259L136.12 473.882L140.859 500.293Z" fill="#EBB376"/>
<path d="M72.6024 184.694C71.2005 190.245 69.8483 196.088 68.5581 201.806C67.2679 207.524 66.077 213.325 65.0845 219.099C64.5387 221.972 64.0673 224.914 63.6579 227.62C63.2485 230.326 63.0128 233.172 62.8639 236.017C62.7336 238.846 62.7336 241.681 62.8639 244.51C62.8639 245.898 63.0252 247.286 63.1492 248.757C63.2733 250.228 63.4966 251.63 63.6703 252.837L58.708 254.933C58.0568 253.442 57.4973 251.902 57.0332 250.325C56.5479 248.81 56.1338 247.268 55.7927 245.704C55.1138 242.584 54.6493 239.41 54.4032 236.211C54.1736 232.979 54.1321 229.734 54.2792 226.496C54.4777 223.221 54.825 220.209 55.2096 217.156C55.9912 211.063 56.996 205.026 58.187 199.113C59.3779 193.201 60.6681 187.247 62.3429 181.266L72.6024 184.694Z" fill="#EBB376"/>
<path d="M58.0005 186.609L68.4337 195.908L74.6985 201.459C74.6985 201.459 75.356 199.503 76.15 196.699C77.6635 191.286 79.636 182.709 78.2714 178.768C76.1252 172.523 72.0685 166.888 66.9326 168.137C62.5782 169.233 58.0005 186.609 58.0005 186.609Z" fill="#263238"/>
<path d="M72.4162 500.376H82.7997L81.9934 473.451H71.5974L72.4162 500.376Z" fill="#EBB376"/>
<path d="M146.243 471.272L148.786 485.415L138.564 487.497L136.107 473.895L146.243 471.272Z" fill="#DA9D62"/>
<path d="M71.5974 473.451H81.9934L82.4027 487.33H72.0068L71.5974 473.451Z" fill="#DA9D62"/>
<path d="M105.465 238.668C105.465 238.668 99.436 318.456 93.1836 363.422C88.1345 399.742 84.1398 484.652 84.1398 484.652H70.0222C70.0222 484.652 63.2735 402.657 65.8415 366.684C72.3296 275.793 60.8792 259.694 74.4634 238.626L105.465 238.668Z" fill="#407BFF"/>
<path opacity="0.6" d="M105.465 238.668C105.465 238.668 99.436 318.456 93.1836 363.422C88.1345 399.742 84.1398 484.652 84.1398 484.652H70.0222C70.0222 484.652 63.2735 402.657 65.8415 366.684C72.3296 275.793 60.8792 259.694 74.4634 238.626L105.465 238.668Z" fill="black"/>
<path d="M59.3906 254.032L53.2622 258.695L54.1306 262.678C54.1306 262.678 66.896 255.267 63.4845 252.297L59.3906 254.032Z" fill="#EBB376"/>
<path d="M87.1791 501.056C86.2543 501.03 85.3349 500.891 84.4374 500.64C84.3918 500.624 84.3506 500.596 84.3179 500.557C84.2852 500.518 84.2623 500.47 84.2514 500.418C84.2438 500.364 84.2503 500.31 84.2701 500.26C84.29 500.211 84.3223 500.169 84.363 500.14C84.7228 499.876 87.8614 497.6 89.0772 498.211C89.215 498.278 89.3339 498.386 89.4213 498.523C89.5087 498.66 89.5612 498.821 89.5734 498.988C89.6218 499.25 89.6097 499.521 89.538 499.776C89.4664 500.031 89.3376 500.262 89.164 500.445C88.5893 500.909 87.8848 501.126 87.1791 501.056ZM85.1322 500.237C86.9434 500.654 88.308 500.57 88.8539 500.043C88.9678 499.917 89.0514 499.76 89.0969 499.588C89.1425 499.415 89.1485 499.233 89.1144 499.058C89.1098 498.984 89.0879 498.913 89.0509 498.852C89.0138 498.791 88.963 498.742 88.9035 498.711C88.246 498.391 86.4223 499.418 85.1322 500.237Z" fill="#407BFF"/>
<path d="M84.4991 500.639C84.4588 500.654 84.4153 500.654 84.375 500.639C84.3387 500.614 84.3083 500.58 84.2867 500.539C84.2651 500.497 84.2528 500.451 84.251 500.403C84.251 500.251 84.251 496.906 85.3923 495.782C85.5299 495.637 85.6954 495.529 85.876 495.466C86.0566 495.404 86.2476 495.388 86.4344 495.421C86.63 495.423 86.8193 495.499 86.9705 495.638C87.1217 495.777 87.2259 495.97 87.2655 496.184C87.5013 497.572 85.6032 500.015 84.6232 500.639C84.5826 500.652 84.5396 500.652 84.4991 500.639ZM86.2607 495.934C86.0598 495.94 85.8669 496.023 85.7148 496.17C85.064 497.251 84.7301 498.532 84.7596 499.834C85.7397 498.946 86.9306 497.059 86.7817 496.268C86.7817 496.143 86.6949 495.976 86.3723 495.934H86.2607Z" fill="#407BFF"/>
<path d="M151.9 495.922C151.853 495.919 151.809 495.902 151.77 495.873C151.731 495.844 151.7 495.805 151.68 495.758C151.66 495.711 151.651 495.659 151.655 495.608C151.659 495.556 151.675 495.506 151.701 495.464C152.036 495.02 154.927 491.217 156.403 491.217H156.502C156.637 491.227 156.766 491.278 156.878 491.363C156.989 491.449 157.078 491.566 157.135 491.703C157.235 491.917 157.287 492.155 157.287 492.396C157.287 492.638 157.235 492.876 157.135 493.09C156.49 494.617 153.574 495.478 151.887 495.866L151.9 495.922ZM156.39 491.758C155.584 491.758 153.798 493.646 152.569 495.186C154.84 494.589 156.378 493.798 156.738 492.896C156.811 492.755 156.849 492.594 156.849 492.431C156.849 492.268 156.811 492.108 156.738 491.966C156.716 491.91 156.682 491.862 156.639 491.825C156.595 491.788 156.544 491.765 156.49 491.758H156.39Z" fill="#407BFF"/>
<path d="M151.9 495.921C151.858 495.914 151.819 495.893 151.788 495.861C151.757 495.829 151.736 495.787 151.726 495.741C151.726 495.616 150.833 492.618 151.627 490.939C151.736 490.693 151.889 490.475 152.077 490.298C152.265 490.122 152.483 489.99 152.719 489.912C153.376 489.69 153.699 489.912 153.835 490.231C154.468 491.369 153.066 494.728 152.136 495.783C152.111 495.827 152.076 495.864 152.035 495.888C151.993 495.913 151.947 495.924 151.9 495.921ZM153.14 490.37C153.046 490.353 152.95 490.353 152.855 490.37C152.682 490.426 152.52 490.521 152.382 490.65C152.243 490.779 152.129 490.939 152.049 491.119C151.689 492.383 151.689 493.741 152.049 495.005C152.93 493.618 153.786 491.133 153.413 490.453C153.372 490.397 153.316 490.359 153.253 490.344C153.19 490.329 153.124 490.338 153.066 490.37H153.14Z" fill="#407BFF"/>
<path d="M85.4052 140.061C86.6457 147 89.1269 160.878 84.8469 165.528C84.8469 165.528 86.5341 172.467 97.9969 172.467C110.589 172.467 104.014 165.528 104.014 165.528C97.1409 163.696 97.3146 157.992 98.518 152.621L85.4052 140.061Z" fill="#EBB376"/>
<path d="M110.439 125.266C110.337 125.268 110.237 125.234 110.154 125.169C110.1 125.126 110.055 125.072 110.021 125.01C109.987 124.948 109.964 124.878 109.953 124.806C109.943 124.734 109.945 124.66 109.961 124.589C109.976 124.518 110.003 124.451 110.042 124.392C110.49 123.678 111.081 123.093 111.769 122.683C112.456 122.273 113.22 122.05 113.999 122.032C114.116 122.053 114.222 122.12 114.299 122.22C114.375 122.321 114.417 122.448 114.417 122.58C114.417 122.713 114.375 122.84 114.299 122.941C114.222 123.041 114.116 123.108 113.999 123.129C113.38 123.148 112.773 123.331 112.23 123.664C111.686 123.997 111.221 124.47 110.873 125.044C110.824 125.12 110.758 125.18 110.682 125.219C110.606 125.258 110.522 125.274 110.439 125.266Z" fill="#263238"/>
<path d="M113.194 131.885C113.863 134.059 114.798 136.119 115.973 138.005C115.532 138.325 115.034 138.535 114.513 138.618C113.993 138.702 113.462 138.659 112.958 138.491L113.194 131.885Z" fill="#DE5753"/>
<path d="M112.5 130.248C112.5 131.192 112.884 131.969 113.43 131.983C113.976 131.997 114.447 131.275 114.484 130.331C114.522 129.388 114.1 128.624 113.554 128.596C113.008 128.569 112.537 129.318 112.5 130.248Z" fill="#263238"/>
<path d="M113.305 128.638L115.34 128.083C115.34 128.083 114.248 129.79 113.305 128.638Z" fill="#263238"/>
<path d="M83.6683 499.03H71.9946C71.7926 499.021 71.5951 499.098 71.4412 499.244C71.2873 499.391 71.1881 499.597 71.1634 499.821L69.836 510.147C69.8076 510.408 69.8296 510.674 69.9005 510.925C69.9715 511.176 70.0896 511.407 70.2471 511.603C70.4046 511.799 70.5977 511.955 70.8135 512.061C71.0294 512.166 71.2629 512.219 71.4983 512.215C75.5674 512.145 77.5275 511.868 82.6634 511.868C85.8269 511.868 90.4294 512.242 94.7962 512.242C99.163 512.242 99.3863 507.413 97.5751 506.982C89.4369 505.012 88.1467 502.319 85.4051 499.738C84.9168 499.284 84.303 499.034 83.6683 499.03Z" fill="#263238"/>
<path d="M150.782 494.685L140.002 499.696C139.815 499.777 139.661 499.932 139.57 500.131C139.478 500.331 139.455 500.561 139.505 500.778L141.813 510.896C141.878 511.148 141.991 511.382 142.143 511.582C142.295 511.782 142.484 511.944 142.696 512.057C142.908 512.17 143.139 512.231 143.374 512.236C143.609 512.242 143.842 512.192 144.058 512.089C147.78 510.271 149.517 509.189 154.256 506.982C157.171 505.594 163.337 503.165 167.369 501.292C171.4 499.418 169.949 494.866 168.125 495.241C159.938 496.934 156.042 495.81 152.631 494.602C152.025 494.386 151.37 494.415 150.782 494.685Z" fill="#263238"/>
<path d="M127.311 179.919C129.333 185.248 131.517 190.703 133.725 196.004C134.841 198.669 136.003 201.287 137.211 203.86C138.451 206.441 139.692 208.967 140.932 211.382C141.59 212.575 142.247 213.769 142.93 214.865L143.947 216.447C144.156 216.778 144.392 217.084 144.654 217.363C146.007 218.678 147.695 219.484 149.48 219.667C153.71 220.347 159.02 219.39 163.771 217.96L165.979 223.303C164.724 224.147 163.423 224.903 162.084 225.566C160.766 226.252 159.411 226.845 158.027 227.342C155.11 228.453 152.053 229.039 148.971 229.077C147.253 229.094 145.541 228.842 143.885 228.327C142.047 227.762 140.318 226.821 138.786 225.552C138.002 224.884 137.275 224.136 136.615 223.317C136.057 222.609 135.648 222.013 135.151 221.347C134.221 220.042 133.39 218.723 132.559 217.405C129.467 212.201 126.683 206.777 124.222 201.167C121.741 195.616 119.508 190.064 117.448 184.318L127.311 179.919Z" fill="#EBB376"/>
<path d="M162.705 223.956L174.044 221.958L171.029 214.769C171.029 214.769 162.246 216.476 160.559 220.917L162.705 223.956Z" fill="#EBB376"/>
<path d="M174.031 216.35L172.79 213.283L171.029 214.768L174.031 221.957V216.35Z" fill="#EBB376"/>
<path d="M84.4623 125.793C84.6856 137.326 84.5616 142.211 89.5487 148.345C96.9921 157.575 109.671 154.743 112.524 143.363C115.092 133.121 114.286 115.981 104.386 110.957C102.206 109.838 99.8071 109.362 97.4166 109.573C95.0261 109.784 92.7234 110.675 90.7273 112.161C88.7311 113.648 87.1077 115.68 86.0112 118.066C84.9147 120.452 84.3816 123.112 84.4623 125.793Z" fill="#EBB376"/>
<path d="M76.1506 104.961C86.7451 96.3702 98.5801 101.242 105.056 107.182C111.829 113.399 110.75 125.349 106.607 130.29C107.036 131.02 107.321 131.846 107.441 132.71C107.561 133.575 107.513 134.458 107.301 135.3C107.824 138.997 107.097 142.78 105.263 145.91C103.428 149.041 100.616 151.294 97.3768 152.232L96.7937 152.398C83.5568 155.923 68.2606 145.903 65.9532 130.914C64.5513 121.768 66.7844 112.539 76.1506 104.961Z" fill="#263238"/>
<path d="M104.237 131.135C104.406 133.31 105.239 135.353 106.594 136.923C108.43 139.046 110.316 137.825 110.651 135.313C110.936 133.051 110.328 129.22 108.095 128.013C105.862 126.805 104.076 128.568 104.237 131.135Z" fill="#EBB376"/>
<path opacity="0.3" d="M91.1117 275.973C89.9332 299.816 95.0691 317.817 97.4138 328.35C99.0762 312.779 100.602 296.527 101.88 282.19C97.5006 265.952 91.9677 258.028 91.1117 275.973Z" fill="black"/>
<path d="M86.0873 484.957H68.037L67.0818 477.879L86.1865 477.157L86.0873 484.957Z" fill="#407BFF"/>
<path opacity="0.3" d="M68.4346 195.907L74.6994 201.459C74.6994 201.459 75.3569 199.502 76.1509 196.699L72.4292 176.089L68.4346 195.907Z" fill="black"/>
<path d="M82.0552 106.891C85.2931 102.88 96.2969 96.7593 105.738 101.561C108.43 102.933 110.712 105.145 112.31 107.932C113.907 110.719 114.753 113.961 114.744 117.272L106.234 123.656L82.0552 106.891Z" fill="#263238"/>
<path d="M73.372 117.425C78.049 113.136 83.2966 97.5922 73.372 103.005C63.4475 108.418 60.4329 129.291 73.372 117.425Z" fill="#407BFF"/>
<path d="M74.4261 107.458C76.4482 100.852 63.1121 87.7092 54.118 100.2C45.1239 112.691 68.6078 126.472 74.4261 107.458Z" fill="#263238"/>
<path d="M95.2924 116.675C87.5389 112.983 83.6808 98.9937 96.992 99.3962C110.303 99.7987 109.919 123.656 95.2924 116.675Z" fill="#407BFF"/>
<path d="M92.7864 109.43C88.0846 102.865 93.2826 85.9889 106.768 91.3877C120.253 96.7864 103.579 124.433 92.7864 109.43Z" fill="#263238"/>
<path d="M116.618 238.667C116.618 238.667 128.329 328.184 132.448 363.408C136.728 399.978 149.233 481.972 149.233 481.972L135.338 484.346C135.338 484.346 113.38 406.14 107.264 370.541C100.59 331.751 87.415 238.695 87.415 238.695L116.618 238.667Z" fill="#407BFF"/>
<path opacity="0.6" d="M116.618 238.667C116.618 238.667 128.329 328.184 132.448 363.408C136.728 399.978 149.233 481.972 149.233 481.972L135.338 484.346C135.338 484.346 113.38 406.14 107.264 370.541C100.59 331.751 87.415 238.695 87.415 238.695L116.618 238.667Z" fill="black"/>
<path d="M121.58 168.511C126.741 169.899 133.105 185.776 133.105 185.776L120.811 203.402C120.811 203.402 108.108 183.292 109.807 177.157C111.569 170.759 115.315 166.804 121.58 168.511Z" fill="#263238"/>
<path d="M104.758 167.789C106.458 168.067 104.882 163.723 104.175 163.265C102.55 162.182 81.8449 160.003 82.0806 162.446C82.2059 163.904 82.7651 165.272 83.6685 166.332C84.599 167.026 89.8714 165.111 104.758 167.789Z" fill="#407BFF"/>
<path opacity="0.6" d="M104.758 167.789C106.458 168.067 104.882 163.723 104.175 163.265C102.55 162.182 81.8449 160.003 82.0806 162.446C82.2059 163.904 82.7651 165.272 83.6685 166.332C84.599 167.026 89.8714 165.111 104.758 167.789Z" fill="white"/>
<path d="M121.58 168.512C121.58 168.512 126.542 170.455 116.617 238.668H74.438C75.1452 219.46 75.17 207.608 66.9946 168.165C72.9009 166.801 78.8879 165.92 84.9084 165.528C91.2891 165.014 97.6945 165.014 104.075 165.528C112.201 166.333 121.58 168.512 121.58 168.512Z" fill="#263238"/>
<path d="M73.7437 235.906L71.8456 240.069C71.6967 240.402 72.0441 240.735 72.5279 240.735H116.791C117.164 240.735 117.486 240.527 117.511 240.25L117.883 236.086C117.883 235.795 117.585 235.545 117.164 235.545H74.4632C74.3251 235.524 74.1844 235.546 74.0572 235.61C73.93 235.674 73.8214 235.776 73.7437 235.906Z" fill="#407BFF"/>
<path opacity="0.6" d="M73.7437 235.906L71.8456 240.069C71.6967 240.402 72.0441 240.735 72.5279 240.735H116.791C117.164 240.735 117.486 240.527 117.511 240.25L117.883 236.086C117.883 235.795 117.585 235.545 117.164 235.545H74.4632C74.3251 235.524 74.1844 235.546 74.0572 235.61C73.93 235.674 73.8214 235.776 73.7437 235.906Z" fill="white"/>
<path d="M79.5248 241.277H78.371C78.1477 241.277 77.9741 241.138 77.9865 240.985L78.5323 235.434C78.5323 235.267 78.7432 235.143 78.9665 235.143H80.1202C80.3435 235.143 80.5172 235.267 80.5048 235.434L79.959 240.985C79.9466 241.11 79.7481 241.277 79.5248 241.277Z" fill="#407BFF"/>
<path d="M107.239 241.277H106.098C105.862 241.277 105.688 241.138 105.713 240.985L106.246 235.434C106.246 235.267 106.457 235.143 106.693 235.143H107.834C108.058 235.143 108.231 235.267 108.219 235.434L107.686 240.985C107.686 241.11 107.487 241.277 107.239 241.277Z" fill="#407BFF"/>
<path opacity="0.6" d="M79.5248 241.277H78.371C78.1477 241.277 77.9741 241.138 77.9865 240.985L78.5323 235.434C78.5323 235.267 78.7432 235.143 78.9665 235.143H80.1202C80.3435 235.143 80.5172 235.267 80.5048 235.434L79.959 240.985C79.9466 241.11 79.7481 241.277 79.5248 241.277Z" fill="black"/>
<path opacity="0.6" d="M107.239 241.277H106.098C105.862 241.277 105.688 241.138 105.713 240.985L106.246 235.434C106.246 235.267 106.457 235.143 106.693 235.143H107.834C108.058 235.143 108.231 235.267 108.219 235.434L107.686 240.985C107.686 241.11 107.487 241.277 107.239 241.277Z" fill="black"/>
<path d="M151.279 481.973L133.49 485.36L131.468 477.851L150.51 474.201L151.279 481.973Z" fill="#407BFF"/>
<path d="M328.569 94.5246C319.106 77.5735 305.363 64.142 289.078 55.9285C272.792 47.715 254.695 45.0884 237.075 48.3808C219.455 51.6732 203.103 60.7367 190.087 74.4254C177.072 88.114 167.976 105.813 163.952 125.284C159.927 144.756 161.154 165.125 167.477 183.816C173.8 202.507 184.935 218.682 199.474 230.293C214.014 241.905 231.304 248.433 249.16 249.052C267.015 249.67 284.634 244.352 299.788 233.768C309.851 226.74 318.578 217.564 325.47 206.762C332.363 195.961 337.286 183.746 339.959 170.816C342.632 157.886 343.001 144.493 341.047 131.403C339.093 118.313 334.852 105.781 328.569 94.5246ZM191.498 190.287C184.034 176.91 180.283 161.357 180.72 145.596C181.157 129.834 185.762 114.571 193.952 101.737C202.142 88.9027 213.551 79.0739 226.734 73.4933C239.918 67.9126 254.284 66.8307 268.018 70.3844C281.751 73.938 294.234 81.9677 303.888 93.458C313.542 104.948 319.933 119.383 322.254 134.937C324.575 150.491 322.721 166.466 316.927 180.841C311.133 195.217 301.658 207.347 289.702 215.699C281.762 221.243 272.923 224.984 263.69 226.708C254.457 228.431 245.012 228.102 235.893 225.741C226.773 223.38 218.159 219.033 210.542 212.947C202.925 206.861 196.454 199.157 191.498 190.273V190.287Z" fill="#407BFF"/>
<path d="M328.569 94.5246C319.106 77.5735 305.363 64.142 289.078 55.9285C272.792 47.715 254.695 45.0884 237.075 48.3808C219.455 51.6732 203.103 60.7367 190.087 74.4254C177.072 88.114 167.976 105.813 163.952 125.284C159.927 144.756 161.154 165.125 167.477 183.816C173.8 202.507 184.935 218.682 199.474 230.293C214.014 241.905 231.304 248.433 249.16 249.052C267.015 249.67 284.634 244.352 299.788 233.768C309.851 226.74 318.578 217.564 325.47 206.762C332.363 195.961 337.286 183.746 339.959 170.816C342.632 157.886 343.001 144.493 341.047 131.403C339.093 118.313 334.852 105.781 328.569 94.5246ZM191.498 190.287C184.034 176.91 180.283 161.357 180.72 145.596C181.157 129.834 185.762 114.571 193.952 101.737C202.142 88.9027 213.551 79.0739 226.734 73.4933C239.918 67.9126 254.284 66.8307 268.018 70.3844C281.751 73.938 294.234 81.9677 303.888 93.458C313.542 104.948 319.933 119.383 322.254 134.937C324.575 150.491 322.721 166.466 316.927 180.841C311.133 195.217 301.658 207.347 289.702 215.699C281.762 221.243 272.923 224.984 263.69 226.708C254.457 228.431 245.012 228.102 235.893 225.741C226.773 223.38 218.159 219.033 210.542 212.947C202.925 206.861 196.454 199.157 191.498 190.273V190.287Z" fill="#407BFF"/>
<path opacity="0.5" d="M328.569 94.5246C319.106 77.5735 305.363 64.142 289.078 55.9285C272.792 47.715 254.695 45.0884 237.075 48.3808C219.455 51.6732 203.103 60.7367 190.087 74.4254C177.072 88.114 167.976 105.813 163.952 125.284C159.927 144.756 161.154 165.125 167.477 183.816C173.8 202.507 184.935 218.682 199.474 230.293C214.014 241.905 231.304 248.433 249.16 249.052C267.015 249.67 284.634 244.352 299.788 233.768C309.851 226.74 318.578 217.564 325.47 206.762C332.363 195.961 337.286 183.746 339.959 170.816C342.632 157.886 343.001 144.493 341.047 131.403C339.093 118.313 334.852 105.781 328.569 94.5246ZM191.498 190.287C184.034 176.91 180.283 161.357 180.72 145.596C181.157 129.834 185.762 114.571 193.952 101.737C202.142 88.9027 213.551 79.0739 226.734 73.4933C239.918 67.9126 254.284 66.8307 268.018 70.3844C281.751 73.938 294.234 81.9677 303.888 93.458C313.542 104.948 319.933 119.383 322.254 134.937C324.575 150.491 322.721 166.466 316.927 180.841C311.133 195.217 301.658 207.347 289.702 215.699C281.762 221.243 272.923 224.984 263.69 226.708C254.457 228.431 245.012 228.102 235.893 225.741C226.773 223.38 218.159 219.033 210.542 212.947C202.925 206.861 196.454 199.157 191.498 190.273V190.287Z" fill="white"/>
<path opacity="0.2" d="M316.735 101.362C326.237 116.127 331.012 133.291 330.454 150.686C329.897 168.081 324.033 184.925 313.603 199.089C303.173 213.252 288.646 224.099 271.859 230.258C255.072 236.417 236.778 237.611 219.291 233.69C201.803 229.769 185.908 220.908 173.614 208.228C161.32 195.548 153.18 179.618 150.222 162.453C147.265 145.287 149.623 127.657 156.999 111.791C164.375 95.9251 176.437 82.5358 191.66 73.3162C201.771 67.1926 213.027 63.0605 224.786 61.1559C236.544 59.2513 248.575 59.6115 260.189 62.216C271.804 64.8205 282.776 69.6182 292.478 76.335C302.181 83.0519 310.423 91.5563 316.735 101.362Z" fill="#FAFAFA"/>
<path opacity="0.1" d="M329.512 135.647L207.936 220.556C198.022 213.03 189.784 203.06 183.857 191.411L316.597 98.6885C323.371 109.742 327.789 122.385 329.512 135.647Z" fill="#E6E6E6"/>
</svg>
